<svg xmlns="http://www.w3.org/2000/svg" xmlns:xlink="http://www.w3.org/1999/xlink" width="500" zoomAndPan="magnify" viewBox="0 0 375 374.999991" height="500" preserveAspectRatio="xMidYMid meet" version="1.0"><defs><g/><clipPath id="fe9c177af9"><path d="M 107.71875 116 L 214.21875 116 L 214.21875 155 L 107.71875 155 Z M 107.71875 116 " clip-rule="nonzero"/></clipPath><clipPath id="0eef16c187"><path d="M 160.90625 116 L 267.40625 116 L 267.40625 155 L 160.90625 155 Z M 160.90625 116 " clip-rule="nonzero"/></clipPath></defs><g clip-path="url(#fe9c177af9)"><path fill="#1800ad" d="M 107.703125 149.8125 C 110.597656 154.285156 116.566406 155.5625 121.039062 152.671875 C 134.707031 143.828125 160.886719 126.894531 160.886719 126.894531 C 160.886719 126.894531 187.066406 143.828125 200.734375 152.671875 C 205.207031 155.5625 211.175781 154.285156 214.070312 149.8125 C 214.070312 149.8125 163.507812 117.101562 163.507812 117.101562 C 161.910156 116.070312 159.859375 116.070312 158.269531 117.101562 C 158.269531 117.101562 107.703125 149.8125 107.703125 149.8125 Z M 107.703125 149.8125 " fill-opacity="1" fill-rule="evenodd"/></g><g clip-path="url(#0eef16c187)"><path fill="#1800ad" d="M 160.890625 149.8125 C 163.785156 154.285156 169.753906 155.5625 174.222656 152.671875 C 187.894531 143.828125 214.074219 126.894531 214.074219 126.894531 C 214.074219 126.894531 240.253906 143.828125 253.921875 152.671875 C 258.390625 155.5625 264.363281 154.285156 267.253906 149.8125 C 267.253906 149.8125 216.691406 117.101562 216.691406 117.101562 C 215.097656 116.070312 213.046875 116.070312 211.453125 117.101562 C 211.453125 117.101562 160.890625 149.8125 160.890625 149.8125 Z M 160.890625 149.8125 " fill-opacity="1" fill-rule="evenodd"/></g><g fill="#1800ad" fill-opacity="1"><g transform="translate(42.099318, 205.51509)"><g><path d="M 1.015625 0 L 1.015625 -3.34375 C 1.015625 -4.28125 1.503906 -4.859375 2.484375 -5.078125 C 2.941406 -5.171875 4.359375 -5.347656 6.734375 -5.609375 L 16.734375 -21.046875 L 7.34375 -35.296875 C 4.707031 -35.566406 3.265625 -35.734375 3.015625 -35.796875 C 2.054688 -36.015625 1.578125 -36.601562 1.578125 -37.5625 L 1.578125 -40.90625 L 19.171875 -40.90625 L 19.171875 -37.5625 C 19.171875 -36.601562 18.703125 -36.015625 17.765625 -35.796875 C 17.410156 -35.734375 17.03125 -35.65625 16.625 -35.5625 C 16.21875 -35.476562 15.96875 -35.425781 15.875 -35.40625 L 22.34375 -24.9375 C 22.382812 -25.007812 22.441406 -25.132812 22.515625 -25.3125 C 22.585938 -25.488281 22.640625 -25.613281 22.671875 -25.6875 C 22.835938 -26.019531 22.976562 -26.257812 23.09375 -26.40625 L 28.71875 -35.359375 C 28.59375 -35.390625 28.296875 -35.453125 27.828125 -35.546875 C 27.359375 -35.640625 26.945312 -35.722656 26.59375 -35.796875 C 25.632812 -36.015625 25.15625 -36.601562 25.15625 -37.5625 L 25.15625 -40.90625 L 42.421875 -40.90625 L 42.421875 -37.5625 C 42.421875 -36.601562 41.953125 -36.015625 41.015625 -35.796875 C 40.679688 -35.734375 39.242188 -35.566406 36.703125 -35.296875 L 27.3125 -21.375 L 37.28125 -5.609375 C 39.457031 -5.367188 40.882812 -5.191406 41.5625 -5.078125 C 42.5 -4.859375 42.96875 -4.28125 42.96875 -3.34375 L 42.96875 0 L 25.625 0 L 25.625 -3.34375 C 25.625 -4.28125 26.09375 -4.859375 27.03125 -5.078125 C 27.769531 -5.222656 28.332031 -5.34375 28.71875 -5.4375 L 21.765625 -16.953125 C 21.710938 -16.753906 21.617188 -16.550781 21.484375 -16.34375 C 21.460938 -16.289062 21.421875 -16.195312 21.359375 -16.0625 C 21.296875 -15.925781 21.25 -15.828125 21.21875 -15.765625 L 14.828125 -5.609375 C 15.253906 -5.515625 16.046875 -5.335938 17.203125 -5.078125 C 18.140625 -4.859375 18.609375 -4.28125 18.609375 -3.34375 L 18.609375 0 Z M 1.015625 0 "/></g></g></g><g fill="#1800ad" fill-opacity="1"><g transform="translate(87.954544, 205.51509)"><g><path d="M 0.96875 0 L 0.96875 -2.875 C 0.96875 -3.53125 1.34375 -4.023438 2.09375 -4.359375 C 2.738281 -4.617188 3.769531 -5.050781 5.1875 -5.65625 L 19 -40.90625 L 26.8125 -40.90625 L 40.6875 -5.65625 C 42.101562 -5.050781 43.132812 -4.617188 43.78125 -4.359375 C 44.5 -4.109375 44.859375 -3.613281 44.859375 -2.875 L 44.859375 0 L 31.046875 0 L 31.046875 -2.875 C 31.046875 -3.53125 31.421875 -4.023438 32.171875 -4.359375 C 32.191406 -4.378906 32.25 -4.398438 32.34375 -4.421875 C 32.445312 -4.453125 32.585938 -4.503906 32.765625 -4.578125 C 32.941406 -4.648438 33.125 -4.726562 33.3125 -4.8125 L 33.09375 -5.4375 L 31.046875 -10.96875 L 14.78125 -10.96875 L 12.671875 -5.140625 L 12.515625 -4.8125 C 12.691406 -4.726562 12.867188 -4.648438 13.046875 -4.578125 C 13.222656 -4.503906 13.359375 -4.445312 13.453125 -4.40625 C 13.554688 -4.375 13.617188 -4.359375 13.640625 -4.359375 C 14.398438 -4.023438 14.78125 -3.53125 14.78125 -2.875 L 14.78125 0 Z M 16.734375 -16.34375 L 29.140625 -16.34375 L 24.4375 -29.078125 C 24.363281 -29.265625 24.242188 -29.582031 24.078125 -30.03125 C 23.910156 -30.488281 23.785156 -30.863281 23.703125 -31.15625 C 23.628906 -31.375 23.359375 -32.285156 22.890625 -33.890625 C 22.429688 -32.253906 22.175781 -31.34375 22.125 -31.15625 C 22.050781 -30.894531 21.972656 -30.640625 21.890625 -30.390625 C 21.804688 -30.140625 21.710938 -29.882812 21.609375 -29.625 C 21.503906 -29.375 21.425781 -29.175781 21.375 -29.03125 Z M 16.734375 -16.34375 "/></g></g></g><g fill="#1800ad" fill-opacity="1"><g transform="translate(135.659947, 205.51509)"><g><path d="M 1.125 0 L 1.125 -3.34375 C 1.125 -4.28125 1.597656 -4.859375 2.546875 -5.078125 C 2.648438 -5.078125 2.757812 -5.097656 2.875 -5.140625 C 3.113281 -5.210938 3.398438 -5.273438 3.734375 -5.328125 C 3.835938 -5.347656 3.976562 -5.367188 4.15625 -5.390625 C 4.332031 -5.421875 4.546875 -5.453125 4.796875 -5.484375 C 5.054688 -5.523438 5.269531 -5.566406 5.4375 -5.609375 L 5.4375 -35.296875 C 5.269531 -35.335938 5.054688 -35.375 4.796875 -35.40625 C 4.546875 -35.445312 4.332031 -35.476562 4.15625 -35.5 C 3.976562 -35.53125 3.835938 -35.554688 3.734375 -35.578125 C 3.597656 -35.585938 3.429688 -35.613281 3.234375 -35.65625 C 3.046875 -35.707031 2.925781 -35.734375 2.875 -35.734375 C 2.800781 -35.734375 2.726562 -35.742188 2.65625 -35.765625 L 2.546875 -35.796875 C 1.597656 -36.015625 1.125 -36.601562 1.125 -37.5625 L 1.125 -40.90625 L 9.390625 -40.90625 C 9.503906 -40.90625 9.660156 -40.894531 9.859375 -40.875 C 10.054688 -40.851562 10.1875 -40.84375 10.25 -40.84375 C 10.488281 -40.84375 10.691406 -40.789062 10.859375 -40.6875 C 11.023438 -40.625 11.195312 -40.503906 11.375 -40.328125 C 11.445312 -40.253906 11.632812 -40.03125 11.9375 -39.65625 L 33.421875 -12.3125 C 33.398438 -12.539062 33.34375 -13.1875 33.25 -14.25 C 33.21875 -14.675781 33.203125 -15.285156 33.203125 -16.078125 L 33.203125 -35.296875 C 30.828125 -35.628906 29.601562 -35.796875 29.53125 -35.796875 C 28.582031 -36.015625 28.109375 -36.601562 28.109375 -37.5625 L 28.109375 -40.90625 L 44.15625 -40.90625 L 44.15625 -37.5625 C 44.15625 -36.601562 43.6875 -36.015625 42.75 -35.796875 L 42.640625 -35.765625 C 42.566406 -35.742188 42.492188 -35.734375 42.421875 -35.734375 C 42.367188 -35.734375 42.242188 -35.707031 42.046875 -35.65625 C 41.859375 -35.613281 41.695312 -35.582031 41.5625 -35.5625 C 41.4375 -35.550781 41.1875 -35.515625 40.8125 -35.453125 C 40.445312 -35.390625 40.15625 -35.335938 39.9375 -35.296875 L 39.9375 0 L 35.984375 0 C 35.410156 0 34.914062 -0.09375 34.5 -0.28125 C 34.113281 -0.445312 33.71875 -0.785156 33.3125 -1.296875 L 11.9375 -28.5 C 12.007812 -27.65625 12.046875 -27.078125 12.046875 -26.765625 C 12.046875 -26.578125 12.050781 -26.296875 12.0625 -25.921875 C 12.082031 -25.546875 12.09375 -25.273438 12.09375 -25.109375 L 12.09375 -5.609375 C 12.757812 -5.515625 13.40625 -5.421875 14.03125 -5.328125 C 14.65625 -5.234375 15.09375 -5.164062 15.34375 -5.125 C 15.59375 -5.09375 15.734375 -5.078125 15.765625 -5.078125 C 16.722656 -4.859375 17.203125 -4.28125 17.203125 -3.34375 L 17.203125 0 Z M 1.125 0 "/></g></g></g><g fill="#1800ad" fill-opacity="1"><g transform="translate(182.481683, 205.51509)"><g><path d="M 1.125 0 L 1.125 -3.34375 C 1.125 -4.28125 1.597656 -4.859375 2.546875 -5.078125 L 2.65625 -5.109375 C 2.726562 -5.128906 2.800781 -5.140625 2.875 -5.140625 C 2.925781 -5.140625 3.046875 -5.164062 3.234375 -5.21875 C 3.429688 -5.269531 3.597656 -5.304688 3.734375 -5.328125 C 3.835938 -5.347656 3.976562 -5.367188 4.15625 -5.390625 C 4.332031 -5.421875 4.546875 -5.453125 4.796875 -5.484375 C 5.054688 -5.523438 5.269531 -5.566406 5.4375 -5.609375 L 5.4375 -35.296875 C 5.269531 -35.335938 5.054688 -35.375 4.796875 -35.40625 C 4.546875 -35.445312 4.332031 -35.476562 4.15625 -35.5 C 3.976562 -35.53125 3.835938 -35.554688 3.734375 -35.578125 C 3.597656 -35.585938 3.429688 -35.613281 3.234375 -35.65625 C 3.046875 -35.707031 2.925781 -35.734375 2.875 -35.734375 C 2.800781 -35.734375 2.726562 -35.742188 2.65625 -35.765625 L 2.546875 -35.796875 C 1.597656 -36.015625 1.125 -36.601562 1.125 -37.5625 L 1.125 -40.90625 L 20.40625 -40.90625 C 23.46875 -40.90625 26.273438 -40.390625 28.828125 -39.359375 C 31.515625 -38.273438 33.707031 -36.882812 35.40625 -35.1875 C 37.15625 -33.4375 38.554688 -31.28125 39.609375 -28.71875 C 40.617188 -26.25 41.125 -23.492188 41.125 -20.453125 C 41.125 -17.421875 40.617188 -14.671875 39.609375 -12.203125 C 38.535156 -9.609375 37.132812 -7.445312 35.40625 -5.71875 C 33.675781 -3.988281 31.484375 -2.585938 28.828125 -1.515625 C 26.304688 -0.503906 23.5 0 20.40625 0 Z M 13.0625 -6.046875 L 20.40625 -6.046875 C 22.445312 -6.046875 24.242188 -6.390625 25.796875 -7.078125 C 27.453125 -7.785156 28.804688 -8.722656 29.859375 -9.890625 C 30.921875 -11.066406 31.773438 -12.578125 32.421875 -14.421875 C 33.015625 -16.109375 33.3125 -18.125 33.3125 -20.46875 C 33.3125 -22.769531 33.015625 -24.765625 32.421875 -26.453125 C 31.722656 -28.347656 30.867188 -29.859375 29.859375 -30.984375 C 28.785156 -32.160156 27.429688 -33.109375 25.796875 -33.828125 C 24.242188 -34.515625 22.445312 -34.859375 20.40625 -34.859375 L 13.0625 -34.859375 Z M 13.0625 -6.046875 "/></g></g></g><g fill="#1800ad" fill-opacity="1"><g transform="translate(226.2382, 205.51509)"><g><path d="M 1.125 0 L 1.125 -3.34375 C 1.125 -4.28125 1.597656 -4.859375 2.546875 -5.078125 L 2.65625 -5.109375 C 2.726562 -5.128906 2.800781 -5.140625 2.875 -5.140625 C 3.113281 -5.210938 3.398438 -5.273438 3.734375 -5.328125 C 3.835938 -5.347656 3.976562 -5.367188 4.15625 -5.390625 C 4.332031 -5.421875 4.546875 -5.453125 4.796875 -5.484375 C 5.054688 -5.523438 5.269531 -5.566406 5.4375 -5.609375 L 5.4375 -35.296875 C 5.269531 -35.335938 5.054688 -35.375 4.796875 -35.40625 C 4.546875 -35.445312 4.332031 -35.476562 4.15625 -35.5 C 3.976562 -35.53125 3.835938 -35.554688 3.734375 -35.578125 C 3.597656 -35.585938 3.429688 -35.613281 3.234375 -35.65625 C 3.046875 -35.707031 2.925781 -35.734375 2.875 -35.734375 C 2.800781 -35.734375 2.726562 -35.742188 2.65625 -35.765625 L 2.546875 -35.796875 C 1.597656 -36.015625 1.125 -36.601562 1.125 -37.5625 L 1.125 -40.90625 L 17.484375 -40.90625 C 20.203125 -40.90625 22.59375 -40.617188 24.65625 -40.046875 C 26.570312 -39.515625 28.195312 -38.703125 29.53125 -37.609375 C 30.851562 -36.503906 31.789062 -35.265625 32.34375 -33.890625 C 32.945312 -32.484375 33.25 -30.898438 33.25 -29.140625 C 33.25 -27.828125 33.046875 -26.519531 32.640625 -25.21875 C 32.304688 -24.1875 31.71875 -23.082031 30.875 -21.90625 C 30.15625 -20.90625 29.21875 -20.03125 28.0625 -19.28125 C 26.914062 -18.519531 25.632812 -17.921875 24.21875 -17.484375 C 25.175781 -16.929688 26.003906 -16.140625 26.703125 -15.109375 L 33.140625 -5.609375 C 34.191406 -5.441406 34.78125 -5.347656 34.90625 -5.328125 C 35.050781 -5.304688 35.222656 -5.269531 35.421875 -5.21875 C 35.628906 -5.164062 35.769531 -5.140625 35.84375 -5.140625 C 35.9375 -5.140625 36.039062 -5.128906 36.15625 -5.109375 L 36.3125 -5.078125 C 37.257812 -4.859375 37.734375 -4.28125 37.734375 -3.34375 L 37.734375 0 L 30.109375 0 C 29.367188 0 28.796875 -0.128906 28.390625 -0.390625 C 27.960938 -0.660156 27.585938 -1.035156 27.265625 -1.515625 L 18.671875 -14.640625 C 18.378906 -15.078125 18.019531 -15.414062 17.59375 -15.65625 C 17.164062 -15.894531 16.59375 -16.015625 15.875 -16.015625 L 13.015625 -16.015625 L 13.015625 -5.609375 C 13.191406 -5.566406 13.476562 -5.515625 13.875 -5.453125 C 14.269531 -5.390625 14.539062 -5.347656 14.6875 -5.328125 C 14.820312 -5.304688 14.984375 -5.269531 15.171875 -5.21875 C 15.367188 -5.164062 15.492188 -5.140625 15.546875 -5.140625 C 15.597656 -5.140625 15.660156 -5.128906 15.734375 -5.109375 C 15.816406 -5.085938 15.863281 -5.078125 15.875 -5.078125 C 16.832031 -4.859375 17.3125 -4.28125 17.3125 -3.34375 L 17.3125 0 Z M 13.015625 -21.4375 L 17.375 -21.4375 C 18.601562 -21.4375 19.84375 -21.628906 21.09375 -22.015625 C 22.164062 -22.347656 23.050781 -22.832031 23.75 -23.46875 C 24.414062 -24.082031 24.921875 -24.835938 25.265625 -25.734375 C 25.617188 -26.640625 25.796875 -27.582031 25.796875 -28.5625 C 25.796875 -30.625 25.113281 -32.222656 23.75 -33.359375 C 22.425781 -34.460938 20.335938 -35.015625 17.484375 -35.015625 L 13.015625 -35.015625 Z M 13.015625 -21.4375 "/></g></g></g><g fill="#1800ad" fill-opacity="1"><g transform="translate(266.763809, 205.51509)"><g><path d="M 1.125 0 L 1.125 -3.34375 C 1.125 -4.28125 1.597656 -4.859375 2.546875 -5.078125 L 2.65625 -5.109375 C 2.726562 -5.128906 2.800781 -5.140625 2.875 -5.140625 C 3.113281 -5.210938 3.398438 -5.273438 3.734375 -5.328125 C 3.835938 -5.347656 3.976562 -5.367188 4.15625 -5.390625 C 4.332031 -5.421875 4.546875 -5.453125 4.796875 -5.484375 C 5.054688 -5.523438 5.269531 -5.566406 5.4375 -5.609375 L 5.4375 -35.296875 C 5.269531 -35.335938 5.054688 -35.375 4.796875 -35.40625 C 4.546875 -35.445312 4.332031 -35.476562 4.15625 -35.5 C 3.976562 -35.53125 3.835938 -35.554688 3.734375 -35.578125 C 3.597656 -35.585938 3.429688 -35.613281 3.234375 -35.65625 C 3.046875 -35.707031 2.925781 -35.734375 2.875 -35.734375 C 2.757812 -35.773438 2.648438 -35.796875 2.546875 -35.796875 C 1.597656 -36.015625 1.125 -36.601562 1.125 -37.5625 L 1.125 -40.90625 L 17.3125 -40.90625 L 17.3125 -37.5625 C 17.3125 -36.601562 16.832031 -36.015625 15.875 -35.796875 C 15.863281 -35.796875 15.816406 -35.785156 15.734375 -35.765625 C 15.660156 -35.742188 15.597656 -35.734375 15.546875 -35.734375 C 15.492188 -35.734375 15.367188 -35.707031 15.171875 -35.65625 C 14.984375 -35.613281 14.820312 -35.582031 14.6875 -35.5625 C 14.5625 -35.550781 14.3125 -35.515625 13.9375 -35.453125 C 13.570312 -35.390625 13.28125 -35.335938 13.0625 -35.296875 L 13.0625 -5.609375 C 13.28125 -5.566406 13.570312 -5.515625 13.9375 -5.453125 C 14.3125 -5.390625 14.5625 -5.347656 14.6875 -5.328125 C 14.820312 -5.304688 14.984375 -5.269531 15.171875 -5.21875 C 15.367188 -5.164062 15.492188 -5.140625 15.546875 -5.140625 C 15.597656 -5.140625 15.660156 -5.128906 15.734375 -5.109375 C 15.816406 -5.085938 15.863281 -5.078125 15.875 -5.078125 C 16.832031 -4.859375 17.3125 -4.28125 17.3125 -3.34375 L 17.3125 0 Z M 1.125 0 "/></g></g></g><g fill="#1800ad" fill-opacity="1"><g transform="translate(286.992705, 205.51509)"><g><path d="M 0.96875 0 L 0.96875 -2.875 C 0.96875 -3.53125 1.34375 -4.023438 2.09375 -4.359375 C 2.738281 -4.617188 3.769531 -5.050781 5.1875 -5.65625 L 19 -40.90625 L 26.8125 -40.90625 L 40.6875 -5.65625 C 42.101562 -5.050781 43.132812 -4.617188 43.78125 -4.359375 C 44.5 -4.109375 44.859375 -3.613281 44.859375 -2.875 L 44.859375 0 L 31.046875 0 L 31.046875 -2.875 C 31.046875 -3.53125 31.421875 -4.023438 32.171875 -4.359375 C 32.191406 -4.378906 32.25 -4.398438 32.34375 -4.421875 C 32.445312 -4.453125 32.585938 -4.503906 32.765625 -4.578125 C 32.941406 -4.648438 33.125 -4.726562 33.3125 -4.8125 L 33.09375 -5.4375 L 31.046875 -10.96875 L 14.78125 -10.96875 L 12.671875 -5.140625 L 12.515625 -4.8125 C 12.691406 -4.726562 12.867188 -4.648438 13.046875 -4.578125 C 13.222656 -4.503906 13.359375 -4.445312 13.453125 -4.40625 C 13.554688 -4.375 13.617188 -4.359375 13.640625 -4.359375 C 14.398438 -4.023438 14.78125 -3.53125 14.78125 -2.875 L 14.78125 0 Z M 16.734375 -16.34375 L 29.140625 -16.34375 L 24.4375 -29.078125 C 24.363281 -29.265625 24.242188 -29.582031 24.078125 -30.03125 C 23.910156 -30.488281 23.785156 -30.863281 23.703125 -31.15625 C 23.628906 -31.375 23.359375 -32.285156 22.890625 -33.890625 C 22.429688 -32.253906 22.175781 -31.34375 22.125 -31.15625 C 22.050781 -30.894531 21.972656 -30.640625 21.890625 -30.390625 C 21.804688 -30.140625 21.710938 -29.882812 21.609375 -29.625 C 21.503906 -29.375 21.425781 -29.175781 21.375 -29.03125 Z M 16.734375 -16.34375 "/></g></g></g><path stroke-linecap="butt" transform="matrix(0.75, -0.000000000000000465, 0.000000000000000465, 0.75, 42.022869, 217.108961)" fill="none" stroke-linejoin="miter" d="M 0.000758079 3.500552 L 389.058075 3.500552 " stroke="#1800ad" stroke-width="7" stroke-opacity="1" stroke-miterlimit="4"/></svg>